<svg version="1.1" height="25" viewBox="0.0 0.0 1459.1994750656168 176.0" fill="none" stroke="none" stroke-linecap="square" stroke-miterlimit="10" xmlns:xlink="http://www.w3.org/1999/xlink" xmlns="http://www.w3.org/2000/svg"><clipPath id="p.0"><path d="m0 0l1459.1995 0l0 176.0l-1459.1995 0l0 -176.0z" clip-rule="nonzero"/></clipPath><g clip-path="url(#p.0)"><path fill="#000000" fill-opacity="0.0" d="m0 0l1459.1995 0l0 176.0l-1459.1995 0z" fill-rule="evenodd"/><path fill="#6abcd4" d="m33.462307 60.33684l27.68504 -27.68504l0 55.37008z" fill-rule="evenodd"/><path fill="#4ba4ce" d="m88.83238 60.316048l-27.685036 27.685036l0 -55.370075z" fill-rule="evenodd"/><path fill="#6abcd4" d="m88.83165 115.66361l-27.685043 27.685036l0 -55.37007z" fill-rule="evenodd"/><path fill="#4ba4ce" d="m33.461567 115.68441l27.68504 -27.685043l0 55.37008z" fill-rule="evenodd"/><path fill="#1e2449" d="m33.463043 60.31679l27.68504 27.68504l-55.37008 0z" fill-rule="evenodd"/><path fill="#2f7fbb" d="m33.485027 115.68687l-27.68504 -27.685036l55.37008 0z" fill-rule="evenodd"/><path fill="#1e2449" d="m88.83017 115.684906l-27.685036 -27.685043l55.37008 0z" fill-rule="evenodd"/><path fill="#2f7fbb" d="m88.80819 60.314827l27.685036 27.685036l-55.370075 0z" fill-rule="evenodd"/><path fill="#000000" fill-opacity="0.0" d="m132.58267 -0.77165353l1326.6143 0l0 177.5433l-1326.6143 0z" fill-rule="evenodd"/><path fill="#ffffff" d="m162.56705 136.65166l-21.375 0l34.046875 -46.34375l-32.25 -43.25l22.140625 0l21.25 29.4375l21.125 -29.4375l21.375 0l-31.875 43.25l34.5625 46.34375l-22.140625 0l-23.421875 -32.640625l-23.4375 32.640625zm68.878265 -14.203125l10.625 -13.3125q7.796875 6.78125 15.03125 9.921875q7.234375 3.125 15.296875 3.125q8.3125 0 13.296875 -3.0625q5.0 -3.078125 5.0 -8.203125q0 -4.609375 -3.390625 -7.15625q-3.390625 -2.5625 -11.328125 -3.84375l-17.78125 -3.078125q-11.53125 -1.921875 -17.484375 -8.0625q-5.9375 -6.140625 -5.9375 -15.875q0 -12.53125 9.53125 -19.828125q9.53125 -7.296875 25.796875 -7.296875q9.71875 0 19.640625 3.328125q9.921875 3.328125 17.34375 9.203125l-9.984375 13.828125q-7.171875 -5.5 -14.078125 -8.125q-6.90625 -2.625 -14.203125 -2.625q-7.421875 0 -11.90625 2.75q-4.484375 2.75 -4.484375 7.359375q0 4.09375 2.9375 6.40625q2.953125 2.296875 9.859375 3.328125l16.90625 2.8125q13.3125 2.171875 20.03125 8.515625q6.71875 6.328125 6.71875 16.703125q0 13.046875 -10.3125 20.859375q-10.296875 7.8125 -27.453125 7.8125q-10.75 0 -21.1875 -4.09375q-10.421875 -4.09375 -18.484375 -11.390625zm148.4729 5.890625q-6.140625 4.984375 -12.609375 7.296875q-6.46875 2.296875 -14.390625 2.296875q-7.5625 0 -14.15625 -2.6875q-6.59375 -2.6875 -11.390625 -7.296875q-4.796875 -4.609375 -7.546875 -10.9375q-2.75 -6.34375 -2.75 -13.640625q0 -7.171875 2.625 -13.5q2.625 -6.34375 7.21875 -11.015625q4.609375 -4.671875 10.9375 -7.359375q6.34375 -2.6875 13.515625 -2.6875q7.046875 0 13.125 2.75q6.078125 2.75 10.484375 7.5q4.421875 4.734375 6.921875 11.328125q2.5 6.578125 2.5 14.265625l0 4.609375l-49.671875 0q1.796875 6.265625 6.90625 10.109375q5.125 3.84375 12.046875 3.84375q4.34375 0 8.1875 -1.40625q3.84375 -1.40625 6.53125 -3.96875l11.515625 10.5zm-28.921875 -45.0625q-6.015625 0 -10.375 3.65625q-4.34375 3.640625 -6.015625 9.78125l32.640625 0q-1.65625 -5.890625 -6.078125 -9.65625q-4.421875 -3.78125 -10.171875 -3.78125zm44.14862 53.375l0 -66.6875l17.546875 0l0 5.25q3.828125 -3.203125 8.5 -4.859375q4.671875 -1.671875 10.1875 -1.671875q11.515625 0 18.9375 7.421875q7.421875 7.421875 7.421875 19.078125l0 41.46875l-17.53125 0l0 -38.90625q0 -6.28125 -3.78125 -10.109375q-3.765625 -3.84375 -10.046875 -3.84375q-4.34375 0 -7.875 1.734375q-3.515625 1.71875 -5.8125 4.921875l0 46.203125l-17.546875 0zm125.70093 0l0 -5.5q-3.96875 3.203125 -8.828125 4.796875q-4.8594055 1.59375 -10.1094055 1.59375q-7.046875 0 -13.265625 -2.6875q-6.203125 -2.6875 -10.8125 -7.296875q-4.59375 -4.609375 -7.21875 -10.875q-2.625 -6.265625 -2.625 -13.4375q0 -7.171875 2.6875 -13.4375q2.6875 -6.28125 7.296875 -10.890625q4.609375 -4.609375 10.9375 -7.21875q6.34375 -2.625 13.5 -2.625q4.875 0 9.546875 1.34375q4.6719055 1.34375 8.6406555 3.890625l0 -27.25l17.53125 -3.84375l0 93.4375l-17.28125 0zm-35.578156 -33.40625q0 8.0625 5.625 13.703125q5.640625 5.625 13.828125 5.625q4.859375 0 8.8906555 -1.65625q4.03125 -1.671875 6.984375 -4.75l0 -25.984375q-2.828125 -2.9375 -6.984375 -4.59375q-4.1562805 -1.671875 -8.8906555 -1.671875q-8.328125 0 -13.890625 5.578125q-5.5625 5.5625 -5.5625 13.75zm126.45853 25.09375q-6.140625 4.984375 -12.609375 7.296875q-6.46875 2.296875 -14.390625 2.296875q-7.5625 0 -14.15625 -2.6875q-6.59375 -2.6875 -11.390625 -7.296875q-4.796875 -4.609375 -7.546875 -10.9375q-2.75 -6.34375 -2.75 -13.640625q0 -7.171875 2.625 -13.5q2.625 -6.34375 7.21875 -11.015625q4.609375 -4.671875 10.9375 -7.359375q6.34375 -2.6875 13.515625 -2.6875q7.046875 0 13.125 2.75q6.078125 2.75 10.484375 7.5q4.421875 4.734375 6.921875 11.328125q2.5 6.578125 2.5 14.265625l0 4.609375l-49.671875 0q1.796875 6.265625 6.90625 10.109375q5.125 3.84375 12.046875 3.84375q4.34375 0 8.1875 -1.40625q3.84375 -1.40625 6.53125 -3.96875l11.515625 10.5zm-28.921875 -45.0625q-6.015625 0 -10.375 3.65625q-4.34375 3.640625 -6.015625 9.78125l32.640625 0q-1.65625 -5.890625 -6.078125 -9.65625q-4.421875 -3.78125 -10.171875 -3.78125zm44.14862 53.375l0 -66.6875l17.546875 0l0 7.296875q3.1875 -4.359375 7.734375 -6.59375q4.546875 -2.234375 10.046875 -2.234375q2.5625 0.125 4.28125 0.453125q1.734375 0.3125 3.015625 1.078125l0 15.359375q-1.921875 -0.890625 -4.21875 -1.34375q-2.296875 -0.453125 -4.734375 -0.453125q-5.125 0 -9.421875 2.5625q-4.28125 2.5625 -6.703125 7.421875l0 43.140625l-17.546875 0z" fill-rule="nonzero"/><path fill="#ffffff" d="m731.66766 136.65166l-9.984375 0l-19.328125 -89.59375l9.984375 0l15.234375 73.984375l22.140625 -73.984375l9.59375 0l22.140625 73.71875l15.359375 -73.71875l9.609375 0l-19.328125 89.59375l-9.984375 0l-22.65625 -75.90625l-22.78125 75.90625zm135.28925 -6.78125q-5.375 3.96875 -11.203125 5.953125q-5.8125 1.984375 -12.734375 1.984375q-6.90625 0 -12.984375 -2.5625q-6.078125 -2.5625 -10.5 -7.03125q-4.421875 -4.484375 -6.984375 -10.5625q-2.546875 -6.09375 -2.546875 -13.125q0 -6.921875 2.484375 -12.9375q2.5 -6.015625 6.71875 -10.484375q4.234375 -4.484375 10.046875 -7.046875q5.828125 -2.5625 12.359375 -2.5625q6.40625 0 11.96875 2.5625q5.5625 2.5625 9.59375 7.046875q4.046875 4.46875 6.40625 10.484375q2.375 6.015625 2.375 12.9375l0 2.9375l-52.609375 0q1.015625 9.46875 7.796875 15.75q6.796875 6.265625 16.265625 6.265625q4.984375 0 9.71875 -1.53125q4.734375 -1.53125 7.9375 -4.359375l5.890625 6.28125zm-25.59375 -50.046875q-8.328125 0 -14.40625 5.640625q-6.078125 5.625 -7.359375 14.453125l42.875 0q-1.28125 -8.453125 -7.234375 -14.265625q-5.9375 -5.828125 -13.875 -5.828125zm106.11389 24.703125q0 6.90625 -2.5 13.0625q-2.5 6.140625 -6.859375 10.5625q-4.34375 4.40625 -10.296875 6.96875q-5.953125 2.5625 -12.734375 2.5625q-5.625 0 -10.9375 -1.921875q-5.3125 -1.921875 -9.671875 -5.515625l0 6.40625l-9.34375 0l0 -89.59375l9.46875 -2.1875l0 34.4375q3.96875 -3.84375 9.28125 -5.828125q5.3125 -1.984375 11.328125 -1.984375q6.78125 0 12.671875 2.5625q5.890625 2.5625 10.234375 6.984375q4.359375 4.40625 6.859375 10.484375q2.5 6.078125 2.5 13.0zm-33.15625 -24.703125q-6.015625 0 -11.203125 2.375q-5.1875 2.359375 -8.515625 6.578125l0 31.75q3.328125 4.09375 8.578125 6.46875q5.25 2.359375 11.140625 2.359375q10.109375 0 16.953125 -7.09375q6.859375 -7.109375 6.859375 -17.609375q0 -5.25 -1.859375 -9.796875q-1.859375 -4.546875 -5.0625 -7.859375q-3.203125 -3.328125 -7.5625 -5.25q-4.34375 -1.921875 -9.328125 -1.921875z" fill-rule="nonzero"/><path fill="#ffffff" d="m1032.4702 128.96416q8.3125 0 15.859375 -3.25q7.5625 -3.265625 12.671875 -9.03125l6.40625 6.65625q-6.65625 6.90625 -15.875 10.8125q-9.21875 3.90625 -19.328125 3.90625q-9.71875 0 -18.234375 -3.578125q-8.515625 -3.59375 -14.796875 -9.796875q-6.265625 -6.203125 -9.859375 -14.71875q-3.578125 -8.515625 -3.578125 -18.109375q0 -9.609375 3.578125 -18.109375q3.59375 -8.515625 9.859375 -14.71875q6.28125 -6.21875 14.796875 -9.796875q8.515625 -3.59375 18.234375 -3.59375q10.375 0 19.65625 3.90625q9.28125 3.90625 15.796875 10.828125l-6.515625 6.90625q-5.25 -5.890625 -13.0 -9.21875q-7.75 -3.328125 -15.9375 -3.328125q-7.671875 0 -14.40625 2.890625q-6.71875 2.875 -11.578125 7.8125q-4.859375 4.921875 -7.6875 11.765625q-2.8125 6.84375 -2.8125 14.65625q0 7.8125 2.8125 14.65625q2.828125 6.84375 7.75 11.78125q4.9375 4.921875 11.65625 7.796875q6.71875 2.875 14.53125 2.875zm42.621582 -24.4375q0 -6.921875 2.546875 -13.0625q2.5625 -6.140625 6.984375 -10.609375q4.421875 -4.484375 10.4375 -7.046875q6.015625 -2.5625 12.796875 -2.5625q6.78125 0 12.734375 2.5625q5.953125 2.5625 10.359375 7.046875q4.421875 4.46875 6.984375 10.609375q2.5625 6.140625 2.5625 13.0625q0 7.03125 -2.5625 13.1875q-2.5625 6.140625 -6.984375 10.625q-4.40625 4.46875 -10.359375 7.03125q-5.953125 2.5625 -12.734375 2.5625q-6.78125 0 -12.796875 -2.5625q-6.015625 -2.5625 -10.4375 -7.03125q-4.421875 -4.484375 -6.984375 -10.625q-2.546875 -6.15625 -2.546875 -13.1875zm32.765625 24.953125q4.859375 0 9.140625 -1.921875q4.296875 -1.921875 7.421875 -5.3125q3.140625 -3.390625 4.9375 -7.921875q1.796875 -4.546875 1.796875 -9.796875q0 -5.25 -1.796875 -9.796875q-1.796875 -4.546875 -4.9375 -7.875q-3.125 -3.328125 -7.421875 -5.234375q-4.28125 -1.921875 -9.140625 -1.921875q-4.859375 0 -9.15625 1.921875q-4.28125 1.90625 -7.421875 5.234375q-3.140625 3.328125 -5.0 7.875q-1.84375 4.546875 -1.84375 9.796875q0 5.25 1.78125 9.796875q1.796875 4.53125 4.921875 7.921875q3.140625 3.390625 7.5 5.3125q4.359375 1.921875 9.21875 1.921875zm45.819946 7.171875l0 -64.125l9.46875 0l0 7.546875q3.71875 -4.34375 8.828125 -6.578125q5.125 -2.25 11.40625 -2.25q10.875 0 17.78125 6.921875q6.921875 6.90625 6.921875 17.90625l0 40.578125l-9.34375 0l0 -38.65625q0 -8.453125 -4.875 -13.4375q-4.859375 -5.0 -13.046875 -5.0q-5.765625 0 -10.3125 2.5625q-4.53125 2.5625 -7.359375 7.296875l0 47.234375l-9.46875 0zm63.740723 -8.828125l5.765625 -6.140625q4.34375 4.09375 9.78125 6.328125q5.453125 2.234375 11.078125 2.234375q7.6875 0 12.546875 -3.1875q4.859375 -3.203125 4.859375 -8.328125q0 -4.09375 -2.875 -6.453125q-2.875 -2.375 -9.03125 -3.265625l-11.125 -1.546875q-9.609375 -1.40625 -14.28125 -5.6875q-4.671875 -4.296875 -4.671875 -11.59375q0 -8.0625 6.78125 -13.375q6.796875 -5.3125 17.28125 -5.3125q6.921875 0 13.125 2.046875q6.203125 2.046875 12.09375 6.40625l-4.984375 6.40625q-5.375 -3.59375 -10.4375 -5.375q-5.046875 -1.796875 -10.296875 -1.796875q-6.53125 0 -10.703125 2.953125q-4.15625 2.9375 -4.15625 7.671875q0 4.09375 2.8125 6.34375q2.828125 2.234375 9.09375 3.125l11.140625 1.53125q9.59375 1.28125 14.390625 5.703125q4.8125 4.40625 4.8125 11.703125q0 4.09375 -1.984375 7.75q-1.984375 3.640625 -5.515625 6.265625q-3.515625 2.625 -8.25 4.109375q-4.734375 1.46875 -10.234375 1.46875q-7.9375 0 -14.921875 -2.625q-6.96875 -2.625 -12.09375 -7.359375zm61.321777 -23.296875q0 -6.921875 2.546875 -13.0625q2.5625 -6.140625 6.984375 -10.609375q4.421875 -4.484375 10.4375 -7.046875q6.015625 -2.5625 12.796875 -2.5625q6.78125 0 12.734375 2.5625q5.953125 2.5625 10.359375 7.046875q4.421875 4.46875 6.984375 10.609375q2.5625 6.140625 2.5625 13.0625q0 7.03125 -2.5625 13.1875q-2.5625 6.140625 -6.984375 10.625q-4.40625 4.46875 -10.359375 7.03125q-5.953125 2.5625 -12.734375 2.5625q-6.78125 0 -12.796875 -2.5625q-6.015625 -2.5625 -10.4375 -7.03125q-4.421875 -4.484375 -6.984375 -10.625q-2.546875 -6.15625 -2.546875 -13.1875zm32.765625 24.953125q4.859375 0 9.140625 -1.921875q4.296875 -1.921875 7.421875 -5.3125q3.140625 -3.390625 4.9375 -7.921875q1.796875 -4.546875 1.796875 -9.796875q0 -5.25 -1.796875 -9.796875q-1.796875 -4.546875 -4.9375 -7.875q-3.125 -3.328125 -7.421875 -5.234375q-4.28125 -1.921875 -9.140625 -1.921875q-4.859375 0 -9.15625 1.921875q-4.28125 1.90625 -7.421875 5.234375q-3.140625 3.328125 -5.0 7.875q-1.84375 4.546875 -1.84375 9.796875q0 5.25 1.78125 9.796875q1.796875 4.53125 4.921875 7.921875q3.140625 3.390625 7.5 5.3125q4.359375 1.921875 9.21875 1.921875zm55.288574 -84.609375l0 91.78125l-9.46875 0l0 -89.59375l9.46875 -2.1875zm70.14697 85.0q-5.375 3.96875 -11.203125 5.953125q-5.8125 1.984375 -12.734375 1.984375q-6.90625 0 -12.984375 -2.5625q-6.078125 -2.5625 -10.5 -7.03125q-4.421875 -4.484375 -6.984375 -10.5625q-2.546875 -6.09375 -2.546875 -13.125q0 -6.921875 2.484375 -12.9375q2.5 -6.015625 6.71875 -10.484375q4.234375 -4.484375 10.046875 -7.046875q5.828125 -2.5625 12.359375 -2.5625q6.40625 0 11.96875 2.5625q5.5625 2.5625 9.59375 7.046875q4.046875 4.46875 6.40625 10.484375q2.375 6.015625 2.375 12.9375l0 2.9375l-52.609375 0q1.015625 9.46875 7.796875 15.75q6.796875 6.265625 16.265625 6.265625q4.984375 0 9.71875 -1.53125q4.734375 -1.53125 7.9375 -4.359375l5.890625 6.28125zm-25.59375 -50.046875q-8.328125 0 -14.40625 5.640625q-6.078125 5.625 -7.359375 14.453125l42.875 0q-1.28125 -8.453125 -7.234375 -14.265625q-5.9375 -5.828125 -13.875 -5.828125z" fill-rule="nonzero"/></g></svg>